<svg width="62" height="44" viewBox="0 0 62 44" fill="none" xmlns="http://www.w3.org/2000/svg">
<path d="M57.25 0.125H4.75C3.58968 0.125 2.47688 0.585936 1.65641 1.40641C0.835936 2.22688 0.375 3.33968 0.375 4.5V39.5C0.375 40.6603 0.835936 41.7731 1.65641 42.5936C2.47688 43.4141 3.58968 43.875 4.75 43.875H57.25C58.4103 43.875 59.5231 43.4141 60.3436 42.5936C61.1641 41.7731 61.625 40.6603 61.625 39.5V4.5C61.625 3.33968 61.1641 2.22688 60.3436 1.40641C59.5231 0.585936 58.4103 0.125 57.25 0.125ZM52.4375 4.5L31 19.3312L9.5625 4.5H52.4375ZM4.75 39.5V6.49062L29.7531 23.7937C30.1193 24.0478 30.5543 24.1839 31 24.1839C31.4457 24.1839 31.8807 24.0478 32.2469 23.7937L57.25 6.49062V39.5H4.75Z" fill="white"/>
</svg>
