<svg width="62" height="60" viewBox="0 0 62 60" fill="none" xmlns="http://www.w3.org/2000/svg">
<path d="M30.9727 0.215823C14.0674 0.208987 0.375 13.8945 0.375 30.7861C0.375 44.1436 8.94043 55.498 20.8691 59.668C22.4756 60.0713 22.2295 58.9297 22.2295 58.1504V52.8525C12.9531 53.9395 12.5771 47.8008 11.9551 46.7754C10.6973 44.6289 7.72363 44.082 8.6123 43.0566C10.7246 41.9697 12.8779 43.3301 15.373 47.0147C17.1777 49.6875 20.6982 49.2363 22.4824 48.792C22.8721 47.1856 23.7061 45.75 24.8545 44.6357C15.2432 42.9131 11.2373 37.0479 11.2373 30.0752C11.2373 26.6914 12.3516 23.5811 14.5391 21.0723C13.1445 16.9365 14.6689 13.3955 14.874 12.8691C18.8457 12.5137 22.9746 15.7129 23.2959 15.9658C25.5518 15.3574 28.1289 15.0361 31.0137 15.0361C33.9121 15.0361 36.4961 15.3711 38.7725 15.9863C39.5449 15.3984 43.373 12.6504 47.0645 12.9854C47.2627 13.5117 48.7529 16.9707 47.4404 21.0518C49.6553 23.5674 50.7832 26.7051 50.7832 30.0957C50.7832 37.082 46.75 42.9541 37.1113 44.6494C37.9369 45.4613 38.5924 46.4296 39.0396 47.4977C39.4868 48.5657 39.7167 49.7122 39.7158 50.8701V58.5605C39.7705 59.1758 39.7158 59.7842 40.7412 59.7842C52.8477 55.7031 61.5635 44.2666 61.5635 30.793C61.5635 13.8945 47.8643 0.215823 30.9727 0.215823Z" fill="white"/>
</svg>
