<svg width="56" height="56" viewBox="0 0 56 56" fill="none" xmlns="http://www.w3.org/2000/svg">
<path d="M53.1562 0.65625H2.84375C1.63379 0.65625 0.65625 1.63379 0.65625 2.84375V53.1562C0.65625 54.3662 1.63379 55.3438 2.84375 55.3438H53.1562C54.3662 55.3438 55.3438 54.3662 55.3438 53.1562V2.84375C55.3438 1.63379 54.3662 0.65625 53.1562 0.65625ZM16.8779 47.2568H8.76367V21.1572H16.8779V47.2568ZM12.8242 17.5889C11.894 17.5889 10.9847 17.313 10.2113 16.7962C9.43788 16.2795 8.83507 15.5449 8.4791 14.6855C8.12313 13.8262 8.02999 12.8805 8.21146 11.9682C8.39293 11.0559 8.84086 10.2179 9.49861 9.56013C10.1564 8.90239 10.9944 8.45446 11.9067 8.27299C12.819 8.09152 13.7646 8.18465 14.624 8.54062C15.4834 8.89659 16.2179 9.4994 16.7347 10.2728C17.2515 11.0463 17.5273 11.9556 17.5273 12.8857C17.5205 15.4834 15.415 17.5889 12.8242 17.5889ZM47.2568 47.2568H39.1494V34.5625C39.1494 31.5342 39.0947 27.6445 34.9316 27.6445C30.7139 27.6445 30.0645 30.9395 30.0645 34.3438V47.2568H21.9639V21.1572H29.7432V24.7256H29.8525C30.9326 22.6748 33.5781 20.5078 37.5293 20.5078C45.7461 20.5078 47.2568 25.915 47.2568 32.9424V47.2568Z" fill="white"/>
</svg>
