<svg width="293" height="400" viewBox="0 0 293 400" fill="none" xmlns="http://www.w3.org/2000/svg">
<path d="M221.66 372.774C199.652 380.266 176.02 373.457 153.543 372.84C151.571 372.155 148.878 373.223 146.854 372.774C127.746 368.527 107.55 369.787 87.8205 369.787C85.203 369.787 80.6032 368.915 78.0208 370.089C75.443 371.261 73.331 372.844 70.5033 373.613C64.3302 375.29 57.5906 373.233 51.9107 370.961C49.2088 369.881 46.5125 367.974 43.5541 367.974C41.6084 367.974 40.1398 366.998 38.4194 366.162C34.7076 364.359 32.9679 361.332 29.6936 359.249C25.5834 356.633 26.1991 351.602 23.787 347.435C22.1993 344.693 20.0208 342.863 19.2227 339.582C18.5771 336.928 19.0885 333.592 19.0885 330.89C19.0885 322.852 19.8093 313.628 20.9343 305.753C21.509 301.731 21.4224 297.794 21.5049 293.671C21.5664 290.592 22.8597 287.629 23.787 284.744C24.4648 282.636 24.1155 280.247 24.8274 278.032C25.7586 275.135 26.8112 272.407 27.8142 269.541C28.6001 267.296 29.3835 266.853 30.5662 265.145C34.0552 260.105 33.7976 253.151 34.9291 247.358C35.4857 244.508 36.2577 241.679 36.6742 238.867C38.209 228.507 48.6466 221.262 50.4676 211.247C50.7933 209.455 52.9672 207.033 53.8572 205.172C54.8787 203.036 56.7753 201.521 58.2201 199.702C59.135 198.55 60.4088 196.86 61.509 195.943C62.9975 194.703 66.0052 193.954 67.7513 193.057C71.4253 191.169 74.7365 188.881 78.1551 186.58C80.5165 184.99 83.5726 182.603 86.411 182.015C87.8508 181.718 89.6613 182.346 90.9752 181.579C96.9683 178.083 106.462 177.805 113.159 177.283C116.212 177.045 119.476 176.581 122.321 177.82C129.67 181.021 138.472 182.422 146.283 184.197C147.872 184.558 150.037 184.935 151.653 184.935H168.433C172.193 184.935 175.907 184.187 179.642 184.331C180.636 184.369 180.049 184.887 180.515 185.405C181.243 186.214 183.491 186.1 184.274 186.143C190.574 186.489 198.399 185.373 204.41 187.519C209.048 189.176 212.447 193.447 216.894 195.54C223.44 198.621 230.436 201.766 235.688 207.018C238.377 209.707 241.005 215.027 241.427 218.831C242.128 225.137 249.209 229.536 250.522 235.612C251.598 240.585 254.107 244.783 255.69 249.506C257.313 254.344 258.014 259.475 259.651 264.272C261.249 268.957 263.856 273.311 265.49 278.032C265.953 279.369 266.53 282.361 268.343 282.764C269.277 282.972 270.295 282.624 271.229 282.831C272.471 283.107 272.158 288.497 272.169 288.973C272.325 296.238 272.202 303.519 272.202 310.787C272.202 317.613 270.581 324.364 269.786 331.125C269.65 332.279 267.827 333.95 267.235 334.884C265.559 337.527 264.243 340.167 263.174 343.106C261.111 348.78 258.456 353.591 253.442 357.101C250.513 359.151 248.043 361.148 245.488 363.612C243.56 365.471 240.538 366.766 237.903 366.766C232.165 366.766 226.959 370.97 221.66 372.774Z" fill="#EC7495"/>
<path d="M151.988 372.807C174.928 373.135 199.144 380.439 221.66 372.774C226.959 370.97 232.165 366.766 237.903 366.766C240.538 366.766 243.56 365.471 245.488 363.612C248.043 361.148 250.513 359.151 253.442 357.101C258.456 353.591 261.111 348.78 263.174 343.106C264.243 340.167 265.559 337.527 267.235 334.884C267.827 333.95 269.65 332.279 269.786 331.125C270.581 324.364 272.202 317.613 272.202 310.787C272.202 303.519 272.325 296.238 272.169 288.973C272.158 288.497 272.471 283.107 271.229 282.831C270.295 282.624 269.277 282.972 268.343 282.764C266.53 282.361 265.953 279.369 265.49 278.032C263.856 273.311 261.249 268.957 259.651 264.272C258.014 259.475 257.313 254.344 255.69 249.506C254.107 244.783 251.598 240.585 250.522 235.612C249.209 229.536 242.128 225.137 241.427 218.831C241.005 215.027 238.377 209.707 235.688 207.018C230.436 201.766 223.44 198.621 216.894 195.54C212.447 193.447 209.048 189.176 204.41 187.519C198.399 185.373 190.574 186.489 184.274 186.143C183.491 186.1 181.243 186.214 180.515 185.405C180.049 184.887 180.636 184.369 179.642 184.331C175.907 184.187 172.193 184.935 168.433 184.935C162.84 184.935 157.246 184.935 151.653 184.935C150.037 184.935 147.872 184.558 146.283 184.197C138.472 182.422 129.67 181.021 122.321 177.82C119.476 176.581 116.212 177.045 113.159 177.283C106.462 177.805 96.9683 178.083 90.9752 181.579C89.6613 182.346 87.8508 181.718 86.411 182.015C83.5726 182.603 80.5165 184.99 78.1551 186.58C74.7365 188.881 71.4253 191.169 67.7513 193.057C66.0052 193.954 62.9975 194.703 61.509 195.943C60.4088 196.86 59.135 198.55 58.2201 199.702C56.7753 201.521 54.8787 203.036 53.8572 205.172C52.9672 207.033 50.7933 209.455 50.4676 211.247C48.6466 221.262 38.209 228.507 36.6742 238.867C36.2577 241.679 35.4857 244.508 34.9291 247.358C33.7976 253.151 34.0552 260.105 30.5662 265.145C29.3835 266.853 28.6001 267.296 27.8142 269.541C26.8112 272.407 25.7586 275.135 24.8274 278.032C24.1155 280.247 24.4648 282.636 23.787 284.744C22.8597 287.629 21.5664 290.592 21.5049 293.671C21.4224 297.794 21.509 301.731 20.9343 305.753C19.8093 313.628 19.0885 322.852 19.0885 330.89C19.0885 333.592 18.5771 336.928 19.2227 339.582C20.0208 342.863 22.1993 344.693 23.787 347.435C26.1991 351.602 25.5834 356.633 29.6936 359.249C32.9679 361.332 34.7076 364.359 38.4194 366.162C40.1398 366.998 41.6084 367.974 43.5541 367.974C46.5125 367.974 49.2088 369.881 51.9107 370.961C57.5906 373.233 64.3302 375.29 70.5033 373.613C73.331 372.844 75.443 371.261 78.0208 370.089C80.6032 368.915 85.203 369.787 87.8205 369.787C107.55 369.787 127.746 368.527 146.854 372.774C148.968 373.243 151.81 372.057 153.801 372.941C156.023 373.929 159.205 373.411 161.654 373.411" stroke="black" stroke-linecap="round" stroke-linejoin="round"/>
<path d="M93.4761 123.575C89.6032 108.191 87.8033 90.8983 95.9884 78.3257C106.99 77.4181 108.454 63.0543 105.242 54.2206C100.402 40.9123 144.892 41.5251 149.053 41.3715C162.265 40.8835 184.999 38.8538 194.721 50.66C200.639 57.8461 208.553 64.438 213.608 72.1785C219.752 81.5857 222.9 94.3044 224.445 105.308C227.651 128.153 216.087 144.372 203.546 162.432C199.445 168.337 192.628 177.4 186.517 181.474C182.73 183.998 178.219 183.596 174.287 185.344C169.762 187.355 159.489 185.924 155.09 184.57C148.259 182.468 134.725 182.53 129.702 176.365C125.318 170.985 122.437 168.419 116.078 164.754C101.838 156.548 97.2807 138.688 93.4761 123.575Z" fill="#F3BE8D"/>
<path d="M106.016 68.6179C86.9232 80.5507 88.463 103.662 93.4761 123.575C97.2807 138.688 101.838 156.548 116.078 164.754C122.437 168.419 125.318 170.985 129.702 176.365C134.725 182.53 148.259 182.468 155.09 184.57C159.489 185.924 169.762 187.355 174.287 185.344C178.219 183.596 182.73 183.998 186.517 181.474C192.628 177.4 199.445 168.337 203.546 162.432C216.087 144.372 227.651 128.153 224.445 105.308C222.9 94.3044 219.752 81.5857 213.608 72.1785C208.553 64.438 200.639 57.8461 194.721 50.66C184.999 38.8538 162.265 40.8835 149.053 41.3715C144.892 41.5251 100.402 40.9123 105.242 54.2206C108.56 63.3455 106.888 78.3709 94.8694 78.3709" stroke="black" stroke-linecap="round" stroke-linejoin="round"/>
<path d="M123.9 19.3C116.5 21.4 110 25.8 100.5 35.4C72.8 63.1 62.4 98.6 73.7 126.8L76.2 133.1L68.1 141.5C62.5 147.5 59 152.3 56.3 157.7C52.7 164.9 52.5 166 52.5 174.4C52.5 182.7 52.8 184 55.7 189.3C57.4 192.4 58.4 195.3 57.9 195.6C55.9 196.8 47 211 42.3 220.5C24.8 255.5 14.8 300.2 18 329.6C20.9 356.4 31 371.7 49 376.3C52.2 377.1 54.5 378.3 54.6 379.1C54.8 382.3 55.1 382.8 56.6 383.4C58.7 384.2 61 382.3 61 379.9C61 378.7 61.9 377.8 63.8 377.5C74.9 375.1 86.1 370.6 107.2 359.9C132.8 347.1 134.7 346.5 141.5 350.1C161.2 360.2 197.5 372.1 217.9 375.1C225.6 376.2 236.6 375.9 241.5 374.5C243 374 243.8 374.6 244.8 377C246.2 380 249.8 381.8 251.9 380.5C253.5 379.6 253.2 376.4 251.5 375C249.2 373.1 249.7 369.6 252.6 367.9C255.6 366.1 266.5 351.2 271 342.9C277.1 331.5 278.3 320.6 274.5 310C273.6 307.4 273.3 305.3 273.9 304.6C274.4 304 275.3 301.7 275.9 299.4C277.5 293.5 275.4 286.8 268.8 276.3C263 267 260 259.7 252.5 236.1C247.4 219.8 241.8 207.4 236.8 201.5C234.9 199.3 232.6 195 231.7 191.9C230.7 188.8 227.7 182.8 224.9 178.6C216.2 165.4 216.7 161 228.1 148.4C238.1 137.3 240.2 133.5 240.2 126C240.2 116.6 233.8 94.9 222.4 65.7C215.2 47.2 211 39.8 203.6 32.5C192.7 21.8 180 17.3 163.5 18.4C158 18.8 152.8 19 152 19C134.8 18.1 127.9 18.2 123.9 19.3ZM187.7 59.7C190.5 61 194.2 63.6 195.8 65.5C199.1 69.2 202.6 77.6 203.2 83C203.5 86.2 203.3 86.5 200.7 86.8C199.1 87 196.4 86.5 194.7 85.7C189.7 83.4 188.6 83.2 186.8 84.2C184.4 85.4 184.5 88.9 186.9 89.8C188.8 90.5 188.7 90.6 186.5 93.2C183.4 96.8 178.3 97 175.1 93.6C173.9 92.4 171.1 90.8 169 90.1C166.8 89.4 165 88.3 165 87.5C165 84.1 157.6 83.7 153.7 86.8C153 87.3 148.8 88 144.2 88.3C139.4 88.7 134.1 89.8 131.5 90.9L127 92.9L128.4 90.2C131.9 83.6 140.2 77.3 154 70.7C162.4 66.7 169.2 62.7 172 60.2C177.1 55.5 178.7 55.4 187.7 59.7ZM204.3 104.2C204.6 110.9 204.7 116.7 204.4 117.2C203.6 118.5 199.2 118.1 196.1 116.5C193 114.9 189.7 109 190.6 106.7C191.6 104 194 103.9 196.2 106.5C197.8 108.4 198.7 108.7 199.6 107.9C200.7 107 200.7 106.3 199.4 103.9C198.1 101.3 196.8 100.6 193.3 100.7C191.4 100.8 191.7 99.4 194.4 96.3C196.4 93.9 197 93.8 198.4 94.9C199.3 95.6 200 96.9 200 97.6C200 98.4 200.5 99 201 99C201.6 99 202 97.4 202 95.5C202 93.6 202.4 92 202.8 92C203.3 92 204 97.5 204.3 104.2ZM169.7 98C171.5 99.4 172.9 101.2 172.9 102.1C173.1 105.4 169.8 114 167.4 116.9C160.4 125.3 146.5 122.1 141.5 111C139.9 107.4 139.8 106.4 140.9 103.2C142.4 99.1 143.8 97 145.1 97C145.6 97 146 97.7 146 98.5C146 100.7 146.9 100.4 149.3 97.4C151.2 94.9 151.7 94.8 158.9 95.2C165.3 95.4 167.1 95.9 169.7 98ZM131 98.6C134.9 100.4 136.9 103.5 139 111C142.4 123.4 158.3 128.5 168 120.3C171.7 117.2 173.3 114.2 175 107.2C176.4 101.3 178.8 99 183.6 99H186.8L187.2 105C187.5 110.3 187.3 110.9 185.8 110.4C182.6 109.4 182.1 111 184.6 113.5C189.6 118.5 184.6 123.7 178.8 119.6C175.8 117.4 174 117.6 174 120C174 122.4 178.7 125 183 125C186.4 125 190 122 190 119C190 116.5 190.4 116.5 194.1 119.2C196 120.7 198.5 121.5 201.1 121.5H205.2L204.5 128C202.7 144.3 196.8 154.2 185.6 160C179.4 163.1 177.9 163.5 170.6 163.5C163.3 163.5 161.7 163.1 155.5 160C146.2 155.3 146.1 155.3 149 158.5C153.1 162.9 160.7 166.2 168.2 166.8L174.8 167.3L176.5 171.9C180 181.9 180 182.1 178.2 182.8C173.2 184.7 144.4 182.7 140.2 180.1C139.5 179.7 138.5 176.6 137.9 173.1C136.3 163.1 133.2 156.3 127.6 150.1C121.2 143.1 118.6 139.4 115 132.3C112.4 127.2 111.8 126.6 108.8 126.6C107 126.5 105.3 126.2 105.1 125.7C104.4 124.3 106.1 113 107 113C107.5 113 109.2 114.1 110.8 115.5C114.1 118.3 116 118.7 116 116.7C116 114.6 112.7 112.1 109.2 111.4C106.1 110.8 106 110.6 106.6 107.1C107 105.1 107.5 103.2 107.7 102.7C108.7 100.9 112.9 102.3 117.4 106C120 108.2 122.6 109.7 123.1 109.4C123.6 109.1 124 106.9 124 104.5C124 99.5 124.8 97 126.3 97C126.9 97 129 97.7 131 98.6ZM180 167.6C180 168.4 179.5 168.8 179 168.5C178.4 168.1 178.2 167.4 178.5 166.9C179.4 165.5 180 165.8 180 167.6ZM155.3 188.7C156.8 189.1 157 190.4 157 198.1C157 208.2 157.4 207.9 147.5 205.7C143.1 204.6 142.5 204.1 141.6 201.1C140.8 198.2 141 196.9 143.4 192.3C146.2 187.1 146.3 187 149.9 187.6C151.9 187.9 154.3 188.4 155.3 188.7ZM182 188.9C182 189.4 184 192.1 186.5 194.8L191.1 199.9L186.7 202.4C184.3 203.8 181.9 205 181.3 205C180.8 205 179.8 201.9 179.1 198.1C177.6 188.7 177.7 188 180 188C181.1 188 182 188.4 182 188.9ZM174.7 197.2C176.2 203.2 176.5 205.7 175.6 206.2C175 206.6 171.1 207 166.9 207H159.3L160.3 201.7C160.8 198.9 161.6 194.8 162.1 192.7C163.1 189.1 163.2 189 167.8 189H172.5L174.7 197.2ZM72.5 203.2C75.5 204 78.6 205.8 80.9 208.2L84.6 211.8L79.6 215.2C73.9 219.1 72.7 221 76.2 221C80.4 221 88.9 218 90.2 216.1C91.4 214.5 92.1 214.4 98 215.4C102.9 216.2 105.8 217.4 109.6 220.2C112.3 222.2 115.7 224.4 117 225C118.4 225.6 120.3 227.9 121.3 230.1C123.6 235 126 236.4 128.6 234.5C130.2 233.4 130.3 232.7 129.4 230.2C128.4 227.5 128.4 227.4 130.5 227.8C135.6 228.7 142 220.4 142 212.8V209.3L147.8 210.6C155.5 212.4 171.2 212.4 178.5 210.5C181.8 209.6 187 207.4 190 205.5L195.5 202.1L199.3 206C203.7 210.7 204 213.7 200.4 217.9C197.3 221.6 197.8 222.5 204.7 226.6C210.6 230 217.2 229.6 222.5 225.6C226.5 222.5 231.7 214.2 232.6 209.2C233.2 206 233.3 205.9 234.7 208C237.5 212 241.3 222.6 247.1 242.6C253.2 263.8 256.9 273 262.4 280.1C269.8 289.9 270.4 293.2 266.4 304C264.7 308.6 264.1 311.5 264.7 312.1C265.8 313.2 269 312.3 269 310.9C269 310.4 269.4 310 269.8 310C271.2 310 271.2 321.3 269.9 326.6C269.2 329.3 267.5 334 266 337C262.5 344 248.7 362.4 245 365C235 372.1 212.6 369.3 170 355.7C160.4 352.6 149.4 348.5 145.5 346.7L138.5 343.3L145.6 339.7C155.4 334.7 174.5 326.8 187.3 322.4L198.2 318.7L201.8 320.5C211 324.9 223.1 326.3 229.5 323.5C233.7 321.8 234.5 320.3 232.9 316.4C232.2 314.8 231.4 306.5 231 298C230.4 284.1 225.7 249.3 222.8 237.7C219.9 225.9 219.1 246 221.5 269.5C222.7 281.5 223.5 302 222.8 302C222.1 302 210 295.2 207 293.2C203.3 290.8 200.8 290.7 185.4 292.6C181.6 293.1 179.7 292.8 177.9 291.7C172.9 288.4 162.9 286.8 143.5 286.3C132.9 286 122.7 286.2 120.4 286.8C117.8 287.4 114 287.4 110.1 286.8C101.7 285.5 97.1 286.7 94.5 290.7C93.4 292.5 91.6 294 90.5 294C89.4 294 86.1 294.9 83.3 295.9C78 297.7 78 297.7 78.5 295.6C79.4 291.5 81 276.5 81 271.8C81 266.6 79.7 264.9 78 268C76.7 270.4 72 294.2 72 298.3C72 300.3 70.4 302.6 65.5 307.4C58.6 314.2 55.4 319.9 54.4 327.4C53.8 331.2 54 332.1 55.5 332.6C57.2 333.3 61.4 331.5 65.9 328.3L68.3 326.6L66.6 329.8C64.6 333.7 64.8 339.9 67.1 341.3C69.2 342.6 73.1 341.6 76.1 338.8L78.6 336.5L81 339.4C83.1 341.9 83.8 342.2 87.4 341.7C90.9 341.2 92.5 340.1 98.8 333.4C102.7 329.2 107 323.5 108.3 320.9L110.5 316.2L129 311.2C159.7 302.7 170.9 300.4 188.3 298.6C193.9 298 194.1 298.1 195.1 300.7C195.7 302.3 196.3 305.7 196.4 308.4L196.5 313.2L187.5 315.1C170 318.7 156.1 324.6 122 343C82.5 364.3 66.7 370.6 55.1 369.8C47.1 369.2 41.7 366.6 36.6 361C22.1 344.9 20.8 303.1 33.4 261.5C40.4 238.4 49.6 216.9 57.5 204.9L62.2 198L64.9 200C66.5 201 69.9 202.5 72.5 203.2ZM159.5 291C162.8 291.6 167.1 292.6 169 293.2L172.5 294.3L165.8 295.7C162.1 296.4 155.4 298.1 150.9 299.4L142.7 301.8L139.5 298.4C137.7 296.5 133.4 293.6 129.9 292L123.5 288.9L138.5 289.4C146.8 289.7 156.2 290.4 159.5 291ZM106 291.7C105.9 294 104.2 294.7 100 294C95.7 293.4 95.6 293.3 98 292.2C100.9 291 106 290.6 106 291.7ZM121.4 293.9C123 294.6 122.9 294.9 120 296.7C117 298.6 116.5 298.7 112.8 297.2L108.8 295.6L111.2 293.8C113.5 292.1 116.3 292.1 121.4 293.9ZM201.3 294.3C203.1 295.1 205.1 296.4 205.8 297.2C206.8 298.5 206.4 298.8 202.8 299.3C200.4 299.6 198.4 299.7 198.2 299.6C198.1 299.4 197.5 297.9 197 296.1C196 292.6 196.5 292.4 201.3 294.3ZM109.8 301.5C113.1 303 117 305.5 118.5 307L121.3 309.9L118.4 310.5C116.8 310.8 114 311.8 112.2 312.6C110.4 313.4 108.3 314 107.6 314C106.9 314 104.6 316.6 102.4 319.7C94.2 331.9 85 339.5 85 334.2C85 333.3 85.9 329.6 87 326C89.6 317.4 89.6 316 86.6 316C84.8 316 83.9 316.9 82.6 320.5C81 324.7 72.3 335.6 71.3 334.6C71 334.4 72.7 329.6 74.9 324.1C79.5 312.7 79.6 312.4 77.5 311.6C76.6 311.3 73.4 313.7 68.6 318.5C64.5 322.6 60.7 326 60.1 326C59.5 326 59.5 324.9 59.9 323.2C62.9 313 71.7 303.4 81.1 300.2C89.9 297.1 101.2 297.6 109.8 301.5ZM135.3 301.8C137 303.7 136.9 303.8 132.4 305.5L127.8 307.2L125 304.5C121.6 301.3 121.9 300 126 300C127.6 300 129.2 299.5 129.5 299C130.3 297.8 132.8 299 135.3 301.8ZM224.2 313.4C224.6 316.9 224.5 317 221.4 317C218.1 317 217 315.7 217 311.7C216.9 310.5 216.3 307.9 215.6 306C214.9 304.1 213.9 301.6 213.5 300.5C213.2 299.4 215.3 301.1 218.3 304.2C222.4 308.4 223.9 310.7 224.2 313.4ZM209.2 304.6C209.6 304.9 210 306.2 210 307.6C210 309.7 209.6 310 206.2 310C202.6 310 202.2 309.7 201.2 306.4L200.1 302.8L204.2 303.4C206.5 303.8 208.7 304.3 209.2 304.6Z" fill="black"/>
<path d="M154.1 103.4C151.7 106 150.7 112 152.6 112.7C153.2 112.9 154 111.7 154.3 110.1C154.7 108.5 155.9 106.6 157.1 105.9C159.1 104.9 159.7 105.1 161.6 107.4C166.1 112.5 169.7 109.9 165.5 104.5C162.2 100.1 157.6 99.7 154.1 103.4Z" fill="black"/>
<path d="M167.5 132C166.5 133.7 169.3 138.3 173 140.8C175.7 142.6 177.4 143.1 180.3 142.7C186.7 141.8 191.7 137.3 189.1 134.7C188.3 133.9 187 134.2 184.1 135.8C178.8 138.8 176.6 138.6 172.1 134.5C169.8 132.4 167.9 131.3 167.5 132Z" fill="black"/>
<path d="M163.8 228.7C161.8 229 161 229.7 161 231.1C161 233.6 163.5 233.5 166 231C168.1 228.9 168.5 227.9 167.3 228.1C166.8 228.2 165.3 228.5 163.8 228.7Z" fill="black"/>
<path d="M186 240.3C186 242.4 186.8 244.4 188 245.5C189.9 247.2 190.2 247.2 191.7 245.8C193.1 244.3 193 243.9 190.5 240.6C187.1 236.1 186 236.1 186 240.3Z" fill="black"/>
<path d="M63.3 242.3C58.3 244.2 58.3 245 63.1 245C65.6 245 68.1 244.5 68.8 243.8C71.7 240.9 69 240.2 63.3 242.3Z" fill="black"/>
<path d="M152.3 247.4C148.8 250.4 149.4 251.1 154.4 250C158.9 249 159.4 248.6 158.7 246.5C157.8 244.3 155.5 244.6 152.3 247.4Z" fill="black"/>
<path d="M102.7 251.6C102 252.3 102.9 257.8 104.2 260.2C106.2 264.2 111.9 260.6 110.3 256.3C108.9 252.2 104.7 249.6 102.7 251.6Z" fill="black"/>
<path d="M239.3 255.2C237.5 255.8 236 256.6 236 257.1C236 259.4 245.2 259.2 246.6 256.8C247.3 255.7 245.2 254 243.5 254.1C243 254.2 241 254.7 239.3 255.2Z" fill="black"/>
<path d="M64.8 262.7C61.5 263.2 61.2 264.5 64.1 266C66.6 267.4 71 266.5 71 264.6C71 263.5 68.3 261.5 67.7 262.1C67.6 262.2 66.3 262.5 64.8 262.7Z" fill="black"/>
<path d="M164 268.9C164 271.9 165.1 274 166.6 274C168.9 274 169.4 271.1 167.5 269C165.2 266.5 164 266.5 164 268.9Z" fill="black"/>
<path d="M202.6 268.6C201.7 269.4 201 270.5 201 271C201 272 203.8 275 204.8 275C206 275 211 269.6 211 268.3C211 266.4 204.5 266.6 202.6 268.6Z" fill="black"/>
<path d="M129 274.5C129 276.6 131.9 278.5 133.2 277.2C134.5 275.9 133.6 274.4 131 273.7C129.8 273.4 129 273.7 129 274.5Z" fill="black"/>
<path d="M38.8 287.7C35.1 290 33.6 293.5 35.6 295.5C37.8 297.7 38.8 297.4 42.1 293.9C47.5 288.2 45.2 283.8 38.8 287.7Z" fill="black"/>
<path d="M247.4 291.4C247.1 292.8 247.5 295.1 248.5 297C249.8 299.5 250.6 300.1 252.8 299.8C256.6 299.4 256.9 295.4 253.5 291.7C250.3 288.4 248.2 288.2 247.4 291.4Z" fill="black"/>
<path d="M174.3 305.7C172.1 306.5 172.9 308.9 175.4 309.6C178.2 310.3 180 309.5 180 307.5C180 305.6 177 304.6 174.3 305.7Z" fill="black"/>
<path d="M39.7 319.8C36.5 321.8 36.7 323.4 40.2 323.8C43.5 324.2 46.5 321.4 44.9 319.4C43.5 317.6 43.1 317.7 39.7 319.8Z" fill="black"/>
<path d="M126 319.8C126 322.1 127.9 324 130.2 324C132.3 324 132.6 321 130.8 319.2C129 317.4 126 317.7 126 319.8Z" fill="black"/>
<path d="M247 330C245.7 330.9 245.7 331.1 247 332C249 333.4 251.5 332.8 251.5 331C251.5 329.2 249 328.6 247 330Z" fill="black"/>
<path d="M182 337.9C181 341.6 181.4 345 182.9 345C185.4 345 186.9 339.5 185.4 335.6C184.4 332.9 183.1 333.8 182 337.9Z" fill="black"/>
<path d="M94.1 344.4C93.2 345.4 93.3 346 94.4 346.9C96.7 348.8 100.5 347.9 100.8 345.2C101.1 343.4 100.7 343 98.2 343C96.6 343 94.7 343.6 94.1 344.4Z" fill="black"/>
<path d="M224 344.5C224 347.6 226.4 351.1 228.4 350.8C231.3 350.4 231.4 348.4 228.6 345.5C225.8 342.7 224 342.3 224 344.5Z" fill="black"/>
<path d="M50 348.5C48.2 350.7 51.8 356.4 55.3 356.8C57.6 357.1 58 356.8 58 354.6C58 350.4 52.2 345.9 50 348.5Z" fill="black"/>
<path d="M139.6 368.6C139.3 369.5 139.6 371.4 140.3 372.8C141.2 374.8 142.3 375.5 144.5 375.5C148.6 375.5 149.1 372 145.4 369.1C142.2 366.6 140.4 366.4 139.6 368.6Z" fill="black"/>
<path d="M178.7 371.4C177.9 373.5 180.4 377.5 182.5 377.5C185.4 377.5 185.6 373.6 182.8 371.6C180.1 369.6 179.4 369.6 178.7 371.4Z" fill="black"/>
<path d="M103.6 374.3C101.3 376 101.9 379.5 104.5 379.5C105.8 379.5 106.6 378.7 106.8 377.2C107 376 107.6 375 108.1 375C108.6 375 109 374.5 109 374C109 372.6 105.7 372.8 103.6 374.3Z" fill="black"/>
<path d="M179.496 171.487C179.365 171.073 177.919 164.961 179.098 167.875C179.23 168.2 179.396 168.944 179.553 168.245C179.807 167.114 179.751 169.267 179.752 169.354C179.759 169.828 179.975 165.563 179.468 165.599C178.81 165.646 178.601 166.441 178.871 166.865C178.993 167.057 179.151 166.496 179.24 166.481C179.366 166.46 179.637 167.383 179.696 167.192C180.109 165.86 179.411 165.652 180.264 166.993C180.665 167.623 181.204 162.914 181.487 166.083C181.647 167.873 181.688 167.953 180.008 167.647" stroke="black" stroke-linecap="round" stroke-linejoin="round"/>
</svg>
